#!OML:ASF F:\VICON\USERDATA\INSTALL\rory3\rory3.ASF
:FULLY-SPECIFIED
:DEGREES
765
root 0.933722 15.2534 -5.20054 -4.82768 0.962997 -1.07726
lowerback -6.7309 11.992 10.5487
upperback -3.98762 15.5441 -6.52164
thorax 4.03104 7.88843 -10.5661
lowerneck 5.22462 -9.5555 -15.4462
upperneck 51.0234 -5.76431 -13.1325
head 19.801 -6.54194 -4.71345
rclavicle -4.45278e-014 -4.13472e-014
rhumerus 68.0093 -5.16842 -71.8013
rradius 146.525
rwrist -63.5404
rhand -0.315197 -40.776
rfingers 7.12502
rthumb 25.2884 -69.1198
lclavicle -4.45278e-014 -4.13472e-014
lhumerus -55.6601 -12.62 81.5098
lradius 33.6062
lwrist 18.5879
lhand -12.5852 -21.9477
lfingers 7.12502
lthumb 13.493 7.59518
rfemur -16.3401 -36.8331 24.4669
rtibia 66.4923
rfoot -48.7132 -38.7818
rtoes 8.90879
lfemur -39.4371 -20.0314 0.0959399
ltibia 26.2391
lfoot 7.4693 -8.73169
ltoes -14.1034
766
root 0.929461 15.2538 -5.20011 -4.84619 0.995952 -0.99527
lowerback -6.74924 12.0462 10.4144
upperback -4.03018 15.6241 -6.5708
thorax 3.99691 7.92466 -10.5303
lowerneck 5.33783 -9.52428 -15.0292
upperneck 51.0155 -5.63732 -13.4251
head 19.7015 -6.4415 -4.88734
rclavicle -7.55382e-014 3.81667e-014
rhumerus 68.1681 -5.21454 -71.63
rradius 146.316
rwrist -63.3241
rhand -0.165791 -41.0132
rfingers 7.12502
rthumb 25.4316 -69.3366
lclavicle -7.55382e-014 3.81667e-014
lhumerus -55.5666 -12.631 81.3967
lradius 33.2579
lwrist 18.4687
lhand -13.2604 -22.6841
lfingers 7.12502
lthumb 12.8422 6.90081
rfemur -16.301 -36.8625 24.3562
rtibia 66.513
rfoot -48.6622 -38.8773
rtoes 8.80059
lfemur -39.4207 -20.1523 0.0470351
ltibia 26.2344
lfoot 7.52067 -8.61938
ltoes -13.9868
767
root 0.925813 15.2542 -5.20014 -4.80583 1.06589 -0.827295
lowerback -6.78293 12.0591 10.202
upperback -4.08126 15.6533 -6.65198
thorax 3.93782 7.93433 -10.4993
lowerneck 4.90403 -9.32429 -14.2097
upperneck 51.123 -5.01979 -13.9939
head 19.7974 -6.09606 -5.26464
rclavicle -1.62606e-013 2.8625e-014
rhumerus 67.6666 -5.3067 -71.6506
rradius 146.809
rwrist -63.3383
rhand -0.00922938 -40.9377
rfingers 7.12502
rthumb 25.5815 -69.2397
lclavicle -1.62606e-013 2.8625e-014
lhumerus -55.5126 -12.6976 81.3832
lradius 33.0555
lwrist 18.7344
lhand -14.7057 -23.7753
lfingers 7.12502
lthumb 11.4486 5.89214
rfemur -16.3867 -36.956 24.1762
rtibia 66.6826
rfoot -48.912 -38.7096
rtoes 9.14659
lfemur -39.3248 -20.3507 -0.050648
ltibia 25.9236
lfoot 7.71541 -8.49568
ltoes -14.1388
768
root 0.930794 15.256 -5.20217 -4.67779 1.03401 -0.141748
lowerback -6.88648 12.1217 9.56984
upperback -4.10691 15.774 -6.88032
thorax 3.9041 7.99299 -10.3684
lowerneck 4.86648 -9.36002 -14.1469
upperneck 51.1734 -5.09881 -13.9282
head 19.8326 -6.11075 -5.2612
rclavicle -9.93923e-014 -9.54166e-015
rhumerus 67.5372 -5.38423 -71.6329
rradius 146.896
rwrist -63.2854
rhand 0.206878 -40.5729
rfingers 7.12502
rthumb 25.7885 -68.8451
lclavicle -9.93923e-014 -9.54166e-015
lhumerus -55.6554 -12.9608 81.5495
lradius 33.2713
lwrist 19.1199
lhand -13.5823 -24.7551
lfingers 7.12502
lthumb 12.5318 4.84911
rfemur -16.7151 -36.9627 23.4809
rtibia 66.9755
rfoot -48.8711 -38.7903
rtoes 9.03329
lfemur -39.2093 -20.543 -0.665718
ltibia 25.528
lfoot 7.94393 -8.25897
ltoes -14.3476
769
root 0.95275 15.2583 -5.21159 -4.37173 0.814338 1.68774
lowerback -7.07739 12.2531 8.02697
upperback -4.10366 16.0536 -7.46133
thorax 3.85416 8.13443 -10.085
lowerneck 5.32843 -9.59877 -14.9739
upperneck 51.0801 -5.85615 -13.1797
head 19.7406 -6.49544 -4.8083
rclavicle -7.51406e-014 4.29375e-014
rhumerus 67.6934 -5.45103 -71.6015
rradius 146.708
rwrist -63.1324
rhand 0.459138 -40.0134
rfingers 7.12502
rthumb 26.0301 -68.2502
lclavicle -7.51406e-014 4.29375e-014
lhumerus -55.6778 -13.0302 81.4653
lradius 33.4633
lwrist 18.558
lhand -9.8531 -26.5776
lfingers 7.12502
lthumb 16.1251 2.77158
rfemur -17.4878 -36.7661 21.6126
rtibia 67.5205
rfoot -48.6653 -38.7855
rtoes 8.77006
lfemur -39.1576 -20.897 -2.33645
ltibia 25.0579
lfoot 8.35364 -7.56396
ltoes -14.3402
770
root 0.953622 15.2548 -5.2183 -4.3358 0.862571 1.79433
lowerback -7.12461 12.284 7.96379
upperback -4.01291 16.1014 -7.49841
thorax 3.98336 8.1677 -10.0587
lowerneck 5.34134 -9.69981 -15.3984
upperneck 51.0401 -6.16741 -12.7704
head 19.7709 -6.65568 -4.57707
rclavicle -1.25632e-013 3.18055e-015
rhumerus 67.9632 -5.56016 -71.5666
rradius 146.598
rwrist -63.1346
rhand 0.590218 -39.8396
rfingers 7.12502
rthumb 26.1556 -68.0579
lclavicle -1.25632e-013 3.18055e-015
lhumerus -55.488 -12.9786 81.3863
lradius 33.528
lwrist 18.0478
lhand -8.52008 -26.7205
lfingers 7.12502
lthumb 17.4084 2.51995
rfemur -17.6546 -36.8432 21.5076
rtibia 67.7778
rfoot -48.7688 -38.8122
rtoes 8.55435
lfemur -39.0508 -21.0459 -2.37292
ltibia 24.6436
lfoot 8.62758 -7.46337
ltoes -14.0862
771
root 0.956004 15.2507 -5.22174 -4.2291 0.956512 2.049
lowerback -7.26665 12.3109 7.71463
upperback -3.92726 16.1503 -7.56501
thorax 4.11841 8.19926 -9.94902
lowerneck 4.9523 -9.67681 -15.288
upperneck 51.0402 -5.99753 -12.8737
head 19.8595 -6.57306 -4.6524
rclavicle 2.00375e-013 -2.70347e-014
rhumerus 68.0836 -5.72475 -71.4485
rradius 146.706
rwrist -63.2003
rhand 0.67639 -39.8261
rfingers 7.12502
rthumb 26.2381 -68.0322
lclavicle 2.00375e-013 -2.70347e-014
lhumerus -55.3892 -13.0049 81.4652
lradius 33.6379
lwrist 17.9742
lhand -9.85277 -25.4058
lfingers 7.12502
lthumb 16.1254 3.94335
rfemur -17.8764 -36.9516 21.2495
rtibia 68.026
rfoot -48.8498 -38.6858
rtoes 8.55243
lfemur -39.0517 -21.2114 -2.56582
ltibia 24.3232
lfoot 8.77554 -7.3684
ltoes -14.1278
